<?xml version="1.0" encoding="UTF-8" standalone="no"?>
<!-- Created with Inkscape (http://www.inkscape.org/) -->

<svg
   width="400"
   height="400"
   viewBox="0 0 105.83333 105.83333"
   version="1.1"
   id="svg5"
   inkscape:version="1.2 (dc2aedaf03, 2022-05-15)"
   sodipodi:docname="twitter_icon_hex.svg"
   inkscape:export-filename="ss.png"
   inkscape:export-xdpi="96.025002"
   inkscape:export-ydpi="96.025002"
   xmlns:inkscape="http://www.inkscape.org/namespaces/inkscape"
   xmlns:sodipodi="http://sodipodi.sourceforge.net/DTD/sodipodi-0.dtd"
   xmlns="http://www.w3.org/2000/svg"
   xmlns:svg="http://www.w3.org/2000/svg">
  <sodipodi:namedview
     id="namedview7"
     pagecolor="#505050"
     bordercolor="#eeeeee"
     borderopacity="1"
     inkscape:pageshadow="0"
     inkscape:pageopacity="0"
     inkscape:pagecheckerboard="0"
     inkscape:document-units="px"
     showgrid="false"
     inkscape:snap-page="true"
     inkscape:object-paths="false"
     inkscape:snap-nodes="true"
     inkscape:snap-bbox="true"
     inkscape:snap-grids="false"
     inkscape:snap-to-guides="false"
     inkscape:zoom="0.7071068"
     inkscape:cx="124.65162"
     inkscape:cy="473.70029"
     inkscape:window-width="1920"
     inkscape:window-height="1009"
     inkscape:window-x="-8"
     inkscape:window-y="-8"
     inkscape:window-maximized="1"
     inkscape:current-layer="layer1"
     inkscape:rotation="-5"
     inkscape:showpageshadow="0"
     inkscape:deskcolor="#505050" />
  <defs
     id="defs2">
    <clipPath
       clipPathUnits="userSpaceOnUse"
       id="clipPath1588">
      <path
         sodipodi:type="star"
         style="display:inline;fill:#ffffff;fill-opacity:1;stroke:none;stroke-width:0.240209;stroke-linecap:round;stroke-linejoin:round;stroke-dasharray:none;paint-order:markers fill stroke;stop-color:#000000"
         id="path1590"
         inkscape:flatsided="true"
         sodipodi:sides="6"
         sodipodi:cx="13.109314"
         sodipodi:cy="4.715179"
         sodipodi:r1="36.933952"
         sodipodi:r2="31.114002"
         sodipodi:arg1="-0.0059536419"
         sodipodi:arg2="0.51764514"
         inkscape:rounded="0.1"
         inkscape:randomized="0"
         d="M 50.042612,4.4952887 C 50.064601,8.1886185 34.953916,34.7247 31.766393,36.590408 28.57887,38.456116 -1.9573925,38.63792 -5.1669044,36.810298 -8.3764163,34.982676 -23.801995,8.628399 -23.823984,4.9350692 -23.845973,1.2417394 -8.7352883,-25.294342 -5.5477654,-27.16005 c 3.1875229,-1.865708 33.7237854,-2.047512 36.9332974,-0.21989 3.209512,1.827622 18.635091,28.18189896 18.65708,31.8752287 z"
         transform="matrix(-1.3091583,0,0,1.3091583,70.200949,46.743748)" />
    </clipPath>
  </defs>
  <g
     inkscape:groupmode="layer"
     id="layer2"
     inkscape:label="area check"
     style="display:none">
    <circle
       style="fill:#0081d1;stroke-width:0.113346;stroke-linecap:round;stroke-linejoin:round;stop-color:#000000"
       id="path970"
       cx="-52.916664"
       cy="52.916664"
       r="52.916664"
       transform="scale(-1,1)" />
  </g>
  <g
     inkscape:groupmode="layer"
     id="g868"
     inkscape:label="export area"
     style="display:inline">
    <circle
       style="fill:#0081d1;stroke-width:0.113346;stroke-linecap:round;stroke-linejoin:round;stop-color:#000000;fill-opacity:0"
       id="circle866"
       cx="-52.916664"
       cy="52.916664"
       r="52.916664"
       transform="scale(-1,1)" />
  </g>
  <g
     inkscape:groupmode="layer"
     id="layer4"
     inkscape:label="back"
     style="display:inline">
    <path
       sodipodi:type="star"
       style="fill:#9affff;fill-opacity:1;stroke:none;stroke-width:0.240209;stroke-linecap:round;stroke-linejoin:round;stroke-dasharray:none;paint-order:markers fill stroke;stop-color:#000000"
       id="path512"
       inkscape:flatsided="true"
       sodipodi:sides="6"
       sodipodi:cx="13.109314"
       sodipodi:cy="4.715179"
       sodipodi:r1="36.933952"
       sodipodi:r2="31.114002"
       sodipodi:arg1="-0.0059536419"
       sodipodi:arg2="0.51764514"
       inkscape:rounded="0.1"
       inkscape:randomized="0"
       d="M 50.042612,4.4952887 C 50.064601,8.1886185 34.953916,34.7247 31.766393,36.590408 28.57887,38.456116 -1.9573925,38.63792 -5.1669044,36.810298 -8.3764163,34.982676 -23.801995,8.628399 -23.823984,4.9350692 -23.845973,1.2417394 -8.7352883,-25.294342 -5.5477654,-27.16005 c 3.1875229,-1.865708 33.7237854,-2.047512 36.9332974,-0.21989 3.209512,1.827622 18.635091,28.18189896 18.65708,31.8752287 z"
       transform="matrix(1.3091583,0,0,1.3091583,35.632382,46.743749)" />
    <circle
       style="display:none;fill:#9affff;fill-opacity:1;stroke:none;stroke-width:0.12049;stroke-linecap:round;stroke-linejoin:round;stroke-opacity:1;stop-color:#000000"
       id="path28855"
       cx="-52.916664"
       cy="52.916664"
       r="43.507359"
       transform="scale(-1,1)" />
  </g>
  <g
     inkscape:label="main"
     inkscape:groupmode="layer"
     id="layer1"
     style="display:inline">
    <g
       id="g184425"
       clip-path="url(#clipPath1588)"
       transform="matrix(-1,0,0,1,105.83333,0)">
      <path
         style="fill:#183b21;fill-opacity:1;stroke:#00270a;stroke-width:0.529167;stroke-linecap:butt;stroke-linejoin:miter;stroke-miterlimit:4;stroke-dasharray:none;stroke-opacity:1"
         d="m 86.505362,48.019406 c 1.743349,3.026722 4.339239,7.952141 8.667764,12.983808 3.497799,4.065993 4.67983,2.69655 4.67983,2.69655 L 87.317686,88.57844 78.928623,98.383186 58.084617,102.82489 31.161388,97.556112 12.751096,82.489459 6.5639233,72.409501 c 0,0 15.3761447,-0.464565 16.6712637,-1.175271 1.295119,-0.710706 6.034371,-3.882218 5.934813,-5.446359 -0.09956,-1.564142 -6.546208,-9.023603 -6.546208,-9.023603 z"
         id="path83377"
         sodipodi:nodetypes="csccccccczzcc" />
      <path
         style="fill:#aeae57;fill-opacity:1;stroke:none;stroke-width:0.264583px;stroke-linecap:butt;stroke-linejoin:miter;stroke-opacity:1"
         d="m 26.312439,95.196736 c 0,0 3.725771,-3.782828 5.154337,-4.981673 2.460854,-2.065136 6.164664,-3.698039 11.168311,-3.519374 1.130196,0.04036 0.628963,0.608437 0.767023,1.047937 l 0.585232,-0.104099 c 0,0 0.163779,0.480917 0.396239,0.813669 0.54585,-0.09587 1.065954,-0.480625 1.065954,-0.480625 l 0.05749,0.291104 c 0.729153,-0.119139 1.43403,-1.289224 3.673667,-0.901873 2.239637,0.38735 4.354729,2.134158 6.574043,3.722891 2.777178,1.988089 8.742368,10.765957 8.742368,10.765957 l -23.263172,-1.20437 z"
         id="path93979"
         sodipodi:nodetypes="csscccccssccc" />
    </g>
    <path
       style="fill:#225d2f;fill-opacity:1;stroke:#00270a;stroke-width:0.79374998;stroke-linecap:round;stroke-linejoin:round;stroke-miterlimit:4;stroke-dasharray:none;stroke-opacity:1"
       d="m 68.212675,16.444469 c 2.922568,0.597401 6.399958,0.403321 7.520639,0.09864 1.351602,-0.367464 1.163788,-0.786647 2.936095,-1.556175 1.467363,-0.637122 5.085258,-1.721486 7.241276,-1.316558 l 0.299225,2.659235 c 0.443291,0.0369 0.754248,0.378422 0.754248,0.378422 l 0.02755,1.38953 c 1.093245,0.56154 1.843022,2.377725 1.843022,2.377725 0,0 0.232629,2.36819 -0.608563,3.484804 l 0.315014,0.420232 c 0,0 -1.945072,5.707799 -5.561437,8.5916"
       id="path7824"
       sodipodi:nodetypes="csscccccccc" />
    <path
       style="fill:#ffff7f;fill-opacity:1;stroke:none;stroke-width:0.264583;stroke-linecap:round;stroke-linejoin:round;stroke-miterlimit:4;stroke-dasharray:none;stroke-opacity:1"
       d="m 35.460865,54.370948 c -0.175443,1.264493 -5.659093,4.852193 -5.608024,6.451346 -0.50917,-0.605607 -0.947346,-0.345353 -1.405664,-0.808423 -0.07272,1.119982 -0.6195,0.983184 -1.137859,2.026683 -0.103011,-0.956397 -0.926041,-0.669437 -0.888948,-1.778495 -0.812659,0.44025 -0.210374,1.376802 -1.03976,1.894948 -0.203549,-1.344417 -0.893737,-0.370371 -1.118692,-1.837508 -0.807746,0.982676 -0.44781,1.117381 -0.959282,1.804525 -0.06889,-0.918488 -0.800881,-1.025589 -0.733058,-2.174115 -0.568594,0.703825 -1.209064,0.541624 -1.793419,1.053574 0.109492,-0.662307 -0.438803,-1.315705 -0.263015,-2.025204 -0.882073,0.09154 -0.989851,0.559942 -1.833826,0.717403 0.27545,-1.164185 -0.490647,-1.527749 0.008,-2.617483 -0.837237,0.223953 -1.006979,-0.360161 -1.485088,-0.374557 0.402719,-0.414182 0.03294,-0.930521 0.693389,-1.682364 -0.501678,0.117118 -0.574628,-0.116032 -0.981167,-0.02607 0.01466,-1.489852 0.78165,-1.977317 -0.154612,-3.512954"
       id="path6345"
       sodipodi:nodetypes="ccccccccccccccccc" />
    <path
       style="fill:#ffff7f;fill-opacity:1;stroke:#000000;stroke-width:0.79374998;stroke-linecap:round;stroke-linejoin:round;stroke-miterlimit:4;stroke-dasharray:none;stroke-opacity:1"
       d="m 16.75984,51.482254 c 0.523228,-3.345996 0.04643,-7.710702 0.04643,-7.710702 0,0 0.700063,-1.025963 2.600206,-1.527259 -0.771507,-1.882499 -0.474328,-3.499053 -0.474328,-3.499053 0,0 0.950251,-1.028792 2.602537,-1.380268 -0.663756,-1.907224 -0.455216,-3.004869 -0.455216,-3.004869 0,0 1.079278,-1.211213 2.654709,-1.872785 1.19345,-0.50115 3.211687,-2.990467 3.77179,-4.07554 3.327392,-6.446066 11.978812,-13.687918 18.630746,-15.877336 6.651935,-2.189418 14.230347,0.106549 18.573028,1.355989 4.34268,1.24944 6.06354,2.778889 7.573828,4.064161 2.792779,0.502425 4.927499,0.347659 7.923835,2.401098 0,0 -1.129072,0.202531 -1.412496,0.6571 1.387704,0.316618 3.316854,1.768376 4.863424,3.380609 0,0 -1.101195,0.06294 -1.525287,0.610867 0.599415,0.349767 1.949937,2.297811 2.131056,3.416544 0,0 -0.918335,0.06964 -1.402805,0.55356 1.450163,2.070182 3.019791,5.248491 3.043015,8.505317 0,0 0.01622,0.856374 0.930976,1.52263 l -0.848697,-0.235672 c -0.134571,0.72487 0.30466,0.837176 0.537906,1.413027 l -0.783386,-0.02553 c -0.22219,1.588284 -0.449721,3.270387 -0.136529,4.815011 0.313192,1.544624 0.878187,2.302397 1.947685,3.785299 0.375131,0.520134 0.719997,1.485942 0.719997,1.485942 -0.421318,-0.123169 -0.668762,0.0035 -0.668762,0.0035 0.224249,0.428579 0.806882,1.635569 0.806882,1.635569 -0.340629,-0.116679 -0.924377,-0.31378 -0.924377,-0.31378 0.46667,1.227786 0.156478,3.832732 0.156478,3.832732 C 87.45865,55.201142 87.22796,55.20047 87.22796,55.20047 c -0.0047,0.57761 -0.314434,1.490733 -0.314434,1.490733 -0.32731,-0.325032 -1.015752,1.360583 -1.297453,1.760004 -1.580237,2.240608 -3.106709,3.899536 -5.029683,5.466238 -2.76741,2.254688 -4.560587,4.242287 -5.905955,8.424154 L 40.300919,58.539646"
       id="path23460" />
    <path
       style="fill:#3b0000;fill-opacity:0.812995;stroke:#000000;stroke-width:0.264583px;stroke-linecap:butt;stroke-linejoin:miter;stroke-opacity:1"
       d="m 80.842012,55.479729 -6.276746,9.624008 -1.93414,9.171811 -3.140257,4.569813 L 60.145803,78.600953 46.291149,66.180046 56.95717,46.796549 Z"
       id="path67704"
       sodipodi:nodetypes="cccccccc" />
    <path
       style="fill:#ffffff;fill-opacity:1;stroke:#000000;stroke-width:0.52916665;stroke-linecap:round;stroke-linejoin:round;stroke-opacity:1;stroke-miterlimit:4;stroke-dasharray:none"
       d="m 69.499275,75.88945 c 0.287561,-1.059072 -0.445246,-4.112086 -0.616685,-5.588921 -0.17144,-1.476834 0.440301,-3.260886 0.200456,-4.392487 -0.239846,-1.131601 -1.191109,-1.877375 -0.635488,-2.377874 0.555622,-0.500501 0.775218,-0.536946 1.891773,0.723831 1.116555,1.260776 2.638677,8.166184 3.069533,10.160043"
       id="path7836"
       sodipodi:nodetypes="cssssc" />
    <path
       style="fill:#ffffff;fill-opacity:1;stroke:#000000;stroke-width:0.79374998;stroke-linecap:round;stroke-linejoin:round;stroke-opacity:1;stroke-miterlimit:4;stroke-dasharray:none"
       d="m 73.408864,74.414042 c 0.171474,0.322213 0.250517,0.652446 0.123891,1.146328 -0.340894,1.32956 -1.386966,3.350025 -2.261257,4.216564 -0.87429,0.866539 -1.424254,1.221635 -3.386711,1.635824 -1.962456,0.414187 -6.413976,-0.904463 -8.433924,-2.229529 -2.019948,-1.325066 -2.740756,-2.281221 -3.575076,-4.530313 -0.83432,-2.249093 -3.479417,-7.416317 -2.89126,-9.311068 0.588161,-1.894748 3.219785,-4.911672 4.497233,-1.926895 1.277449,2.984777 3.039814,8.838442 3.862385,10.34174 0.822571,1.503298 1.576871,2.516599 2.394229,2.844137 0.817359,0.327537 2.333513,0.400684 3.217826,0.281779 0.57457,-0.07726 1.777346,-0.264491 2.543075,-0.993159 l 0.481271,-0.457977"
       id="path61771"
       sodipodi:nodetypes="csssssssssssc" />
    <path
       style="fill:#c45b57;fill-opacity:1;stroke:#540202;stroke-width:0.52916665;stroke-linecap:round;stroke-linejoin:round;stroke-opacity:1;stroke-miterlimit:4;stroke-dasharray:none"
       d="m 67.16836,53.271461 c 0,0 1.565391,6.033184 2.105276,8.539634 0.539885,2.506451 1.315746,9.448271 0.57518,11.855125 -0.740566,2.406854 -1.06376,2.127225 -1.949225,2.588315 -0.885465,0.46109 -1.775206,0.489886 -2.748086,0.09586 -0.97288,-0.394026 -1.513926,-1.23247 -2.460498,-2.556362 -0.946572,-1.323892 -2.434191,-4.071921 -3.341402,-5.467971 -0.907211,-1.39605 -3.702032,-5.97445 -4.627839,-7.320351 -0.681447,-14.489571 5.86363,-17.393896 12.446594,-7.73425 z"
       id="path7826"
       sodipodi:nodetypes="czzzzzzcc" />
    <path
       id="path7816"
       style="fill:#ffff7f;fill-opacity:1;stroke:#000000;stroke-width:0.79374998;stroke-linecap:round;stroke-linejoin:round;stroke-miterlimit:4;stroke-dasharray:none;stroke-opacity:1"
       d="m 85.556367,51.364424 c -0.356165,0.640293 -3.563608,4.588924 -5.041391,6.596455 -1.14985,1.562041 -4.408582,5.84406 -5.085477,7.829743 -0.730663,2.143411 0.247372,4.096544 0.16433,6.049243 -0.105732,2.486194 -0.319736,4.938528 -0.626959,5.480368 -1.059363,1.86836 -3.111627,3.399294 -5.511683,4.400682 -2.400057,1.001386 -4.311566,1.291249 -9.097018,0.09224 C 56.555471,80.860374 52.945912,77.716759 45.864735,73.826958 43.272586,72.40305 30.691343,65.168739 29.647799,62.469377 c -1.500291,-3.880839 -1.609547,-9.579303 -1.609547,-9.579303 0,0 1.032579,-0.817696 2.537217,-1.159328 -1.608988,-2.460944 -1.590083,-6.242741 -1.590083,-6.242741 0,0 4.012012,-1.882566 6.502884,-2.066558 -0.887132,-1.529146 -0.973585,-3.231845 -0.973585,-3.231845 0,0 4.405323,-4.529055 8.239289,-4.363559 0.255598,0.01103 0.512006,0.03453 0.769464,0.07132 m 19.139139,18.206692 c -2.441347,4.717002 -5.08477,9.940613 -7.105645,14.156325 -0.792064,1.662698 -0.44535,2.573663 0.505314,4.152073 1.19146,1.978206 3.084254,3.965841 4.939175,5.482671 1.264132,1.033722 3.487288,1.241 5.190937,1.30218 0.838606,0.03012 4.654996,-0.99505 5.487408,-1.720849 0.621239,-0.541673 1.462137,-1.267451 1.622209,-1.732866 0.434856,-1.264362 0.784387,-2.442021 0.359652,-4.129536 -0.343387,-1.364311 -0.332164,-1.290694 -0.304831,-2.510472 0.01325,-0.591142 -0.572602,-1.929932 -0.231058,-2.898863 0.751992,-2.133336 3.211428,-5.464756 4.852616,-7.510368 1.345986,-1.677665 -4.819563,-2.680219 -4.601503,-2.955659"
       sodipodi:nodetypes="csssssssscccccscccsssssssssc" />
    <path
       style="fill:none;stroke:#540202;stroke-width:0.52916665;stroke-linecap:round;stroke-linejoin:round;stroke-opacity:1;stroke-miterlimit:4;stroke-dasharray:none"
       d="m 64.15492,58.01269 c 1.751289,2.726225 2.55275,5.643674 2.754082,8.591584 0.112136,1.563057 0.191728,4.697312 0.191728,4.697312"
       id="path7828"
       sodipodi:nodetypes="ccc" />
    <path
       style="fill:#225d2f;fill-opacity:1;stroke:#00270a;stroke-width:0.79374998;stroke-linecap:round;stroke-linejoin:round;stroke-miterlimit:4;stroke-dasharray:none;stroke-opacity:1"
       d="m 49.8611,18.175692 c 0,0 -0.323959,-5.787184 -1.419706,-7.991099 C 47.345647,7.9806783 45.769143,6.2862998 43.922345,5.3040192 42.075547,4.3217386 38.788338,3.8937189 37.765091,4.4221048 L 37.753451,5.485022 C 36.847158,4.9969438 34.83765,4.6065527 34.104756,4.8966536 l -0.644012,1.1530086 c -0.742594,-0.2760629 -1.717239,-0.0226 -1.717239,-0.0226 0,0 -0.430069,1.2795316 -0.248549,1.9205955 l -0.789772,0.3846032 c -0.202935,0.6846777 -0.157078,2.1049961 0.409504,2.8404901 l -0.850593,0.95457 c -0.176999,1.494703 0.707946,4.969623 1.86353,6.98239 1.155584,2.012767 2.912945,4.263698 4.269539,5.330837 1.356594,1.067139 0.512457,5.169382 0.512457,5.169382"
       id="path7818"
       sodipodi:nodetypes="czzccccccccczzc" />
    <path
       style="fill:#ffff7f;fill-opacity:1;stroke:#000000;stroke-width:0.52916665;stroke-linecap:round;stroke-linejoin:round;stroke-miterlimit:4;stroke-dasharray:none;stroke-opacity:1"
       d="m 54.130599,17.880383 c -4.087438,-1.286912 -7.451635,-0.668669 -7.451635,-0.668669 l 0.254976,2.499728 c -2.857704,-1.044627 -4.435096,-0.466156 -4.435096,-0.466156 l 0.271143,2.937383 -4.566893,0.251117 c 0,0 -0.646919,5.082768 -3.140883,9.054215"
       id="path7820"
       sodipodi:nodetypes="ccccccc" />
    <path
       style="fill:#ffffff;fill-opacity:1;stroke:#000000;stroke-width:0.79374998;stroke-linecap:round;stroke-linejoin:round;stroke-miterlimit:4;stroke-dasharray:none;stroke-opacity:1"
       d="m 62.666497,76.265416 c 1.302053,-1.167993 2.63313,-6.032481 1.902137,-6.584481 -0.730995,-0.552001 -3.409805,2.495297 -5.725376,4.322275"
       id="path7838"
       sodipodi:nodetypes="czc" />
    <path
       style="fill:#173f20;fill-opacity:1;stroke:none;stroke-width:0.264583px;stroke-linecap:butt;stroke-linejoin:miter;stroke-opacity:1"
       d="m 77.34345,35.717223 c 0,0 0.491064,2.825461 1.191128,3.007719 0.700066,0.182256 1.512286,0.748874 2.779258,-0.01667 1.266972,-0.765535 1.629508,-1.239261 2.352361,-1.147337 0.722854,0.09192 0.947986,0.476525 1.240999,0.816081 0.293014,0.339556 -0.390535,3.004341 -0.325404,4.247221 0.06513,1.24288 -0.250884,1.109329 -0.253007,2.103516 -0.0021,0.994191 0.626076,3.071605 0.626076,3.071605 0,0 -0.251215,0.862811 -0.432735,1.603343 -0.181519,0.740529 -5.668016,-1.593776 -5.668016,-1.593776 l -1.911956,-4.048641 -0.151651,-3.050691 z"
       id="path36457"
       sodipodi:nodetypes="csssssccscccc" />
    <path
       style="fill:#ffffff;fill-opacity:1;stroke:#000000;stroke-width:0.79374998;stroke-linecap:round;stroke-linejoin:round;stroke-miterlimit:4;stroke-dasharray:none;stroke-opacity:1"
       d="m 79.332922,56.321203 c -0.462832,1.870717 -0.867418,6.258611 -0.576629,6.365757 0.38801,0.142968 4.183028,-4.060425 4.453243,-5.922692"
       id="path7832"
       sodipodi:nodetypes="csc" />
    <path
       style="fill:#ffff7f;fill-opacity:1;stroke:#000000;stroke-width:0.79375;stroke-linecap:round;stroke-linejoin:round;stroke-miterlimit:4;stroke-dasharray:none;stroke-opacity:1"
       d="m 77.318124,35.717223 c 0,0 -0.556246,3.270219 -0.04519,4.519051 0.128148,0.313147 1.070388,1.330437 1.677874,1.927617 2.770226,2.723228 6.86336,7.553429 7.315409,8.484959 0.391619,0.807003 0.483198,3.534057 0.09231,4.408209 -0.459321,1.027185 -2.265541,3.454968 -3.589953,3.739857 -1.781847,0.383287 -3.734549,-0.252646 -4.546351,-1.037682 -0.687282,-0.664623 0.01508,-1.358817 -0.59804,-2.465123 C 76.961662,54.098658 64.182978,54.2651 64.182978,54.2651"
       id="path7842"
       sodipodi:nodetypes="csssssssc" />
    <path
       style="fill:#ffffff;fill-opacity:1;stroke:#000000;stroke-width:0.79374998;stroke-linecap:round;stroke-linejoin:round;stroke-miterlimit:4;stroke-dasharray:none;stroke-opacity:1"
       d="m 70.31448,53.872015 c -1.014459,3.059853 -2.723331,8.8519 -1.78528,9.239508 1.195038,0.493795 7.130586,-4.87043 7.85842,-7.917707"
       id="path7830"
       sodipodi:nodetypes="csc" />
    <path
       id="path10613"
       style="fill:#173f20;fill-opacity:1;stroke:none;stroke-width:0.264583px;stroke-linecap:round;stroke-linejoin:round;stroke-opacity:1"
       d="m 53.438595,30.344401 c 1.137761,0.01621 2.389095,0.232468 3.447852,0.39946 3.438223,0.585488 6.257692,1.867363 8.476485,3.281968 2.111245,1.371317 4.090892,2.823901 5.520076,4.367175 0.908256,0.316101 1.503061,0.392676 1.695503,0.22841 0.346014,-0.295352 1.663147,-3.31325 1.736844,-3.580659 0.0737,-0.267409 0.583443,-0.2169 0.583943,0.0031 5.03e-4,0.220001 -0.170394,3.118344 -0.369485,4.45244 -1.074957,0.23886 -2.31407,2.968294 -2.31407,2.968294 -0.724175,-0.349435 -2.036183,-0.204444 -2.628781,-0.08061 l 0.150379,0.84491 c -1.342903,-0.23335 -3.041158,0.701249 -3.041158,0.701249 L 66.884802,44.712 c -1.377868,0.8312 -1.567863,1.81746 -1.567863,1.81746 l 0.311608,0.890384 c -2.238184,0.530717 -3.081464,1.337903 -3.081464,1.337903 l -2.286167,2.539381 c -0.389742,-0.751174 -0.750774,-1.419191 -1.089856,-2.024166 -1.401839,-0.05717 -2.217851,-0.840094 -3.636986,-0.689364 -1.863913,0.51145 -2.179312,1.654609 -2.951758,2.556949 -1.187852,0.976911 -3.30159,-0.57241 -1.787488,-1.094507 1.452973,-0.464579 2.593552,-1.114118 3.242697,-1.916163 0.816311,-0.537165 1.220274,-1.752216 -0.780831,-1.984891 -0.663398,-0.738806 1.685785,-1.518822 -0.199988,-2.179711 -2.253951,-0.475009 1.306727,-0.88723 0.499195,-1.586466 -0.806556,-0.75357 0.582462,-0.943043 1.436603,-1.299662 0.218202,-0.390882 0.803722,-0.686477 1.471229,-0.923975 -0.09044,-0.0077 -0.197581,-0.01399 -0.327113,-0.01809 -1.808276,-0.104228 -2.852534,-1.130247 -2.880444,-1.889808 -0.362969,-0.852969 -0.457907,-1.713936 -0.438217,-2.557468 -0.07879,-0.738716 -0.395538,-1.457393 -0.518313,-2.186945 -0.386908,-0.958829 -1.63721,-2.018943 -0.72037,-2.918169 0.534651,-0.187915 1.176662,-0.250023 1.859319,-0.240294 z" />
    <path
       style="fill:#ffff7f;fill-opacity:1;stroke:#000000;stroke-width:0.79375;stroke-linecap:round;stroke-linejoin:round;stroke-miterlimit:4;stroke-dasharray:none;stroke-opacity:1"
       d="m 62.662577,54.104055 c 0.262845,0.332122 0.574877,0.649669 1.690249,1.437849 1.941099,1.371684 5.468903,2.593021 6.646387,2.96294 1.49509,0.469699 5.529443,0.323 6.54304,0.120497 1.013597,-0.202503 1.34296,-0.512827 2.369605,-1.965983 1.026645,-1.453156 0.671045,-2.780043 0.671045,-2.780043 -1.181709,-1.279866 -0.737967,-1.816051 -3.076924,-3.499753"
       id="path133052"
       sodipodi:nodetypes="csssscc" />
    <path
       style="fill:#ffff7f;fill-opacity:1;stroke:none;stroke-width:0.0878002;stroke-linecap:round;stroke-linejoin:round;stroke-miterlimit:4;stroke-dasharray:none;stroke-opacity:1"
       d="m 61.511292,49.7281 c -0.130891,-0.688614 -0.676222,-1.189492 -0.676222,-1.189492 0,0 -0.914378,0.275361 -1.130219,0.639005 -0.323825,-0.477114 -1.644362,-0.686152 -1.644362,-0.686152 0,0 -0.367039,0.974273 -0.34115,1.545843 -0.831135,-0.163209 -1.514099,0.581284 -1.514099,0.581284 0,0 0.644258,1.299633 1.077769,1.62248 -0.377463,0.508415 -0.260888,1.842912 -0.260888,1.842912 0,0 1.420936,0.372964 2.121806,0.06834 -0.03725,0.96876 1.331769,0.86739 1.331769,0.86739 0,0 1.378599,-1.457195 1.467211,-1.961228"
       id="path7834-4"
       sodipodi:nodetypes="ccccccccccc" />
    <path
       style="fill:#00270a;fill-opacity:1;stroke:none;stroke-width:0.264583px;stroke-linecap:round;stroke-linejoin:round;stroke-opacity:1"
       d="m 84.622563,50.97065 c -0.506302,-0.376644 -6.772481,-1.38744 -7.702848,-1.095709 -0.930367,0.291732 -1.027849,1.727378 -0.621433,2.468825 0.406415,0.741447 3.476017,2.139149 4.55598,2.26792 1.079962,0.128771 3.666384,-0.673855 4.10583,-1.460023 0.439445,-0.786169 0.168773,-1.804369 -0.337529,-2.181013 z"
       id="path5063"
       sodipodi:nodetypes="zzzzzz" />
    <path
       style="fill:#000000;fill-opacity:1;stroke:none;stroke-width:0.264583px;stroke-linecap:butt;stroke-linejoin:miter;stroke-opacity:1"
       d="m 63.318258,41.328467 c 0,0 0.443741,2.60501 2.839431,1.558662 1.22062,-0.53312 -1.263704,-1.81454 -2.839431,-1.558662 z"
       id="path56566"
       sodipodi:nodetypes="csc" />
    <path
       style="fill:#ffffff;fill-opacity:1;stroke:#000000;stroke-width:0.79374998;stroke-linecap:round;stroke-linejoin:round;stroke-miterlimit:4;stroke-dasharray:none;stroke-opacity:1"
       d="m 73.263904,74.690659 c 0.996035,-1.120611 1.638803,-4.827501 1.036268,-5.048225 -0.449101,-0.164518 -1.133957,1.241592 -2.867069,2.4559"
       id="path7840"
       sodipodi:nodetypes="csc" />
  </g>
  <g
     inkscape:groupmode="layer"
     id="layer3"
     inkscape:label="front hand">
    <path
       style="fill:#ffe5ca;fill-opacity:1;stroke:#000000;stroke-width:0.79375;stroke-linecap:round;stroke-linejoin:round;stroke-miterlimit:4;stroke-dasharray:none;stroke-opacity:1"
       d="m 33.935438,101.38158 c 0,0 2.529416,-7.021175 0.470529,-8.829928 -2.058886,-1.808751 -5.389136,1.58878 -4.149212,2.681411 1.239924,1.092631 3.678683,6.148517 3.678683,6.148517 z"
       id="path3162-29"
       sodipodi:nodetypes="czzc" />
    <path
       style="fill:#276c37;fill-opacity:1;stroke:#00270a;stroke-width:0.79375;stroke-linecap:butt;stroke-linejoin:miter;stroke-miterlimit:4;stroke-dasharray:none;stroke-opacity:1"
       d="m 30.322181,95.79794 c 0.575244,0.159393 2.934435,-0.686244 4.562748,-1.708635 2.293496,-1.440046 -2.794868,-8.613977 -4.674131,-9.813643 -11.328676,-6.059304 3.388117,-0.01757 -5.088499,0.965157 0.327609,4.159436 1.961132,7.34087 1.961132,7.34087 0,0 2.663505,3.056857 3.23875,3.216251 z"
       id="path1132-1"
       sodipodi:nodetypes="zccccz" />
    <path
       style="fill:#276c37;fill-opacity:1;stroke:#00270a;stroke-width:0.79375;stroke-linecap:butt;stroke-linejoin:miter;stroke-miterlimit:4;stroke-dasharray:none;stroke-opacity:1"
       d="m 32.154752,90.046807 c 1.026229,-1.411665 1.076525,-2.467244 1.551955,-4.330213 0.669654,-2.624009 -3.356943,-5.283012 -4.683493,-6.086196 -0.12084,-3.837556 -3.697939,-6.886311 -5.961112,-8.060294 -0.439435,-2.114641 -2.899606,-5.664033 -5.597737,-7.10807 -0.643185,-3.005449 -2.855608,-6.069903 -3.933692,-6.975126 -1.078085,-0.905224 -3.7864599,-2.485066 -7.7971785,-1.231951 0.9748138,2.465949 1.6080977,3.168752 0.7085292,4.041733 -0.363229,0.352492 -1.2968976,1.879009 -1.3441339,3.345373 -0.02269,0.704405 -0.070253,2.84506 0.7234604,4.094594 0.7468655,1.175778 3.2535851,1.156448 3.6183986,1.927605 0.3243051,0.685532 -0.3120236,3.595933 0.7872892,5.028701 0.998077,1.300825 3.316025,3.210094 3.662651,3.656151 0.386727,0.49766 -0.133815,3.032426 1.309723,5.02016 0.710972,0.979002 3.131158,2.095909 4.044004,3.008729 0.735383,0.735363 0.844559,2.649778 2.467958,4.807012 1.645935,2.187186 3.340044,2.828301 5.45733,2.424434 2.117288,-0.403868 3.95982,-2.150976 4.986048,-3.562642 z"
       id="path1132"
       sodipodi:nodetypes="zcccczcssssssssszz" />
    <path
       style="fill:#ffe5ca;fill-opacity:1;stroke:#000000;stroke-width:0.79375;stroke-linecap:round;stroke-linejoin:round;stroke-miterlimit:4;stroke-dasharray:none;stroke-opacity:1"
       d="m 7.1454777,63.527115 c -3.3016516,0.208171 -5.5367238,-0.322893 -5.5367238,-0.322893 0,0 2.2886494,5.302112 5.8419953,4.748744 3.5533458,-0.553371 2.9963808,-4.634021 -0.3052715,-4.425851 z"
       id="path3162-0"
       sodipodi:nodetypes="zczz" />
    <path
       style="fill:#ffe5ca;fill-opacity:1;stroke:#000000;stroke-width:0.79375;stroke-linecap:round;stroke-linejoin:round;stroke-miterlimit:4;stroke-dasharray:none;stroke-opacity:1"
       d="m 10.946606,71.622844 c -3.3779563,1.577454 -5.9412956,1.940366 -5.9412956,1.940366 0,0 4.5834692,4.620175 8.0833756,2.576977 3.499904,-2.043198 1.235879,-6.0948 -2.14208,-4.517343 z"
       id="path3162-0-8"
       sodipodi:nodetypes="zczz" />
    <path
       style="fill:#ffe5ca;fill-opacity:1;stroke:#000000;stroke-width:0.79375;stroke-linecap:round;stroke-linejoin:round;stroke-miterlimit:4;stroke-dasharray:none;stroke-opacity:1"
       d="m 15.861948,79.636504 c -3.406387,2.088971 -6.0923037,2.785855 -6.0923037,2.785855 0,0 5.4406887,4.365306 8.9205477,1.765569 3.47986,-2.599739 0.578144,-6.640395 -2.828244,-4.551424 z"
       id="path3162-0-7"
       sodipodi:nodetypes="zczz"
       inkscape:transform-center-x="1.1215678"
       inkscape:transform-center-y="0.13290931" />
    <path
       style="fill:#ffe5ca;fill-opacity:1;stroke:#000000;stroke-width:0.79375;stroke-linecap:round;stroke-linejoin:round;stroke-miterlimit:4;stroke-dasharray:none;stroke-opacity:1"
       d="m 22.929764,87.401539 c -3.471227,2.320809 -6.247211,3.158528 -6.247211,3.158528 0,0 5.859845,4.335153 9.386863,1.478011 3.527016,-2.857145 0.331578,-6.957349 -3.139652,-4.636539 z"
       id="path3162-0-76"
       sodipodi:nodetypes="zczz" />
    <path
       style="fill:#ffe5ca;fill-opacity:1;stroke:#000000;stroke-width:0.79375;stroke-linecap:round;stroke-linejoin:round;stroke-miterlimit:4;stroke-dasharray:none;stroke-opacity:1"
       d="m 85.53722,86.586692 c 0,0 -2.944528,-5.573337 -1.436209,-7.329181 1.508321,-1.755837 4.694709,0.692373 3.786747,1.752588 -0.907963,1.060209 -2.350538,5.576593 -2.350538,5.576593 z"
       id="path3162-29-4"
       sodipodi:nodetypes="czzc" />
    <path
       style="fill:#276c37;fill-opacity:1;stroke:#00270a;stroke-width:0.79375;stroke-linecap:butt;stroke-linejoin:miter;stroke-miterlimit:4;stroke-dasharray:none;stroke-opacity:1"
       d="m 87.899743,81.490245 c -0.46227,0.201235 -2.535188,-0.227409 -4.017727,-0.890186 -2.088167,-0.93353 1.320248,-7.534159 2.750292,-8.75938 2.482755,-9.680583 -2.835659,0.385387 4.369635,0.206309 0.217177,3.517344 -0.773304,6.370972 -0.773304,6.370972 0,0 -1.866599,2.87106 -2.328871,3.072293 z"
       id="path1132-1-4"
       sodipodi:nodetypes="zccccz" />
    <path
       style="fill:#276c37;fill-opacity:1;stroke:#00270a;stroke-width:0.79375;stroke-linecap:butt;stroke-linejoin:miter;stroke-miterlimit:4;stroke-dasharray:none;stroke-opacity:1"
       d="m 86.953426,78.004296 c -1.191406,-0.868048 -1.505973,-1.703363 -2.371904,-3.077168 -1.219678,-1.935022 1.325961,-5.117814 2.183527,-6.107852 -0.89952,-3.115651 1.183634,-6.494952 2.69767,-8.02625 -0.196016,-1.813674 0.859444,-5.305268 2.652923,-7.166572 -0.263605,-2.582537 0.646446,-5.303013 1.54232,-6.208432 0.798152,-0.806655 3.284854,-2.344529 4.070358,-2.618195 0.722241,1.659206 1.416898,2.003684 2.36661,2.47168 0.38347,0.188967 1.32799,1.318013 1.74678,2.484274 0.20117,0.560242 0.79533,2.268348 0.48194,3.478738 -0.2949,1.138948 -2.31459,1.774423 -2.407517,2.488952 -0.08261,0.63519 1.184667,2.80904 0.673237,4.246064 -0.46433,1.304687 -1.831426,3.441166 -1.994169,3.889687 -0.181569,0.500406 0.895088,2.402431 0.251135,4.374879 -0.31716,0.971472 -1.972207,2.49768 -2.468804,3.46839 -0.400052,0.782002 0.0094,2.348981 -0.735099,4.504373 -0.754825,2.18531 -1.94989,3.14055 -3.756449,3.36584 -1.806569,0.225275 -3.741158,-0.700368 -4.932558,-1.568408 z"
       id="path1132-6"
       sodipodi:nodetypes="zccccscssssssssszz" />
    <path
       style="fill:#ffe5ca;fill-opacity:1;stroke:#000000;stroke-width:0.79375;stroke-linecap:round;stroke-linejoin:round;stroke-miterlimit:4;stroke-dasharray:none;stroke-opacity:1"
       d="m 100.50179,49.747091 c 2.78377,-0.241166 4.58378,-0.965677 4.58378,-0.965677 0,0 -1.24502,4.716113 -4.28239,4.700601 -3.037381,-0.01551 -3.085154,-3.493757 -0.30139,-3.734924 z"
       id="path3162-0-0"
       sodipodi:nodetypes="zczz" />
    <path
       style="fill:#ffe5ca;fill-opacity:1;stroke:#000000;stroke-width:0.79375;stroke-linecap:round;stroke-linejoin:round;stroke-miterlimit:4;stroke-dasharray:none;stroke-opacity:1"
       d="m 99.621625,57.711801 c 3.112105,0.479752 5.276345,0.167486 5.276345,0.167486 0,0 -2.62311,4.830565 -5.944309,4.002049 -3.321188,-0.828521 -2.444157,-4.649279 0.667964,-4.169535 z"
       id="path3162-0-8-3"
       sodipodi:nodetypes="zczz" />
    <path
       style="fill:#ffe5ca;fill-opacity:1;stroke:#000000;stroke-width:0.79375;stroke-linecap:round;stroke-linejoin:round;stroke-miterlimit:4;stroke-dasharray:none;stroke-opacity:1"
       d="m 97.743224,65.599691 c 3.313846,0.851207 5.670196,0.759626 5.670196,0.759626 0,0 -3.21321,4.822493 -6.724287,3.57912 -3.511074,-1.243376 -2.259756,-5.189947 1.054091,-4.338746 z"
       id="path3162-0-7-9"
       sodipodi:nodetypes="zczz"
       inkscape:transform-center-x="-0.74999809"
       inkscape:transform-center-y="0.10008715" />
    <path
       style="fill:#ffe5ca;fill-opacity:1;stroke:#000000;stroke-width:0.79375;stroke-linecap:round;stroke-linejoin:round;stroke-miterlimit:4;stroke-dasharray:none;stroke-opacity:1"
       d="m 94.843095,73.631199 c 3.430024,0.820586 5.874505,0.670247 5.874505,0.670247 0,0 -3.370572,5.151955 -7.002034,3.9229 -3.631461,-1.229056 -2.302492,-5.413726 1.127529,-4.593147 z"
       id="path3162-0-76-2"
       sodipodi:nodetypes="zczz" />
  </g>
</svg>
