<?xml version="1.0" encoding="UTF-8" standalone="no"?>
<!-- Created with Inkscape (http://www.inkscape.org/) -->

<svg
   width="400"
   height="400"
   viewBox="0 0 105.83333 105.83333"
   version="1.1"
   id="svg5"
   inkscape:version="1.1 (c68e22c387, 2021-05-23)"
   sodipodi:docname="twitter_icon_stencil.svg"
   inkscape:export-filename="C:\Users\who\Documents\GitHub\pannda-icons\drt.png"
   inkscape:export-xdpi="96.025002"
   inkscape:export-ydpi="96.025002"
   xmlns:inkscape="http://www.inkscape.org/namespaces/inkscape"
   xmlns:sodipodi="http://sodipodi.sourceforge.net/DTD/sodipodi-0.dtd"
   xmlns="http://www.w3.org/2000/svg"
   xmlns:svg="http://www.w3.org/2000/svg">
  <sodipodi:namedview
     id="namedview7"
     pagecolor="#505050"
     bordercolor="#eeeeee"
     borderopacity="1"
     inkscape:pageshadow="0"
     inkscape:pageopacity="0"
     inkscape:pagecheckerboard="0"
     inkscape:document-units="px"
     showgrid="false"
     inkscape:snap-page="true"
     inkscape:object-paths="false"
     inkscape:snap-nodes="true"
     inkscape:snap-bbox="true"
     inkscape:snap-grids="false"
     inkscape:snap-to-guides="false"
     inkscape:zoom="2"
     inkscape:cx="163.82356"
     inkscape:cy="232.91447"
     inkscape:window-width="2400"
     inkscape:window-height="1261"
     inkscape:window-x="2391"
     inkscape:window-y="95"
     inkscape:window-maximized="1"
     inkscape:current-layer="layer2"
     inkscape:rotation="-5" />
  <defs
     id="defs2" />
  <g
     inkscape:groupmode="layer"
     id="layer2"
     inkscape:label="area check"
     style="display:inline">
    <ellipse
       style="fill:#ffff7f;stroke:#55c500;stroke-width:0.455111;stroke-linecap:round;stroke-linejoin:round;stop-color:#000000;fill-opacity:1;stroke-opacity:1"
       id="path1102"
       cx="52.916664"
       cy="52.916664"
       rx="52.689106"
       ry="52.68911" />
    <path
       id="path3491"
       style="fill:#55c500;fill-opacity:1;stroke-width:0.999999"
       d="M 256.79492 29.826172 C 255.7893 29.831271 254.66337 29.850764 253.4043 29.880859 C 245.38728 30.072486 243.39876 30.49331 238.33398 33.074219 C 228.65523 38.006325 218.09834 49.63989 215.09961 58.677734 L 213.5 63.5 L 191.5 64.123047 C 179.4 64.465279 164.325 65.318425 158 66.019531 C 144.97014 67.463855 139.14836 69.791008 125.82422 78.880859 L 118.14844 84.117188 L 109.47852 83.412109 C 102.75553 82.86661 100.21217 82.221358 98.154297 80.537109 C 93.366444 76.618522 80.99676 72.195242 71.273438 70.923828 C 60.007274 69.450678 59.097717 69.923039 59.154297 77.230469 C 59.18253 80.874961 58.743197 82.564002 57.597656 83.205078 C 56.705143 83.704554 56 85.384855 56 87.011719 C 56 88.612961 55.129742 90.732008 54.066406 91.722656 C 53.003066 92.713304 50.879574 95.318444 49.347656 97.511719 C 46.936393 100.96397 46.512199 102.65476 46.1875 110.0957 C 45.858137 117.64339 46.147683 119.53238 48.556641 125.5957 C 50.065447 129.39335 52.357649 133.77147 53.650391 135.32617 C 54.943133 136.88086 56 138.52688 56 138.98242 C 56 139.43796 58.051232 141.013 60.558594 142.48242 C 63.760768 144.35901 64.835119 145.50199 64.169922 146.32617 C 63.310881 147.39053 62.048667 151.40669 57.355469 168 C 56.286928 171.77793 56.024121 175.06552 56.513672 178.5 C 57.792146 187.46921 57.396681 192.33648 54.529297 203 C 52.267843 211.41014 51.615909 216.28648 51.253906 227.5 C 50.818909 240.9745 50.914905 241.83782 53.791016 250.5 C 56.766347 259.461 62.747312 271.95852 65.535156 275.03906 C 66.340479 275.92893 67 276.94317 67 277.29297 C 67 278.01637 68.520295 279.8118 76.988281 289.08594 C 82.524545 295.14926 83 296.03729 83 300.30078 C 83 304.05392 82.412146 305.59966 79.896484 308.46484 C 78.18951 310.40898 76.379597 312 75.875 312 C 74.114315 312 61.448515 318.46708 54.886719 322.7168 C 51.249664 325.07232 47.728518 327 47.060547 327 C 46.392576 327 47.955753 329.47102 50.535156 332.49023 C 53.114555 335.50945 55.694469 337.69015 56.267578 337.33594 C 56.840691 336.98173 57.044457 337.11871 56.720703 337.64258 C 56.089163 338.66444 62.709706 345.38478 72.636719 353.79883 C 78.599305 358.85267 80.864298 360.20803 79.404297 357.8457 C 78.958672 357.12465 79.130103 356.96214 79.861328 357.41406 C 80.505273 357.81204 80.773453 358.55636 80.457031 359.06836 C 79.926597 359.92664 81.351184 360.43652 83.324219 360.09375 C 83.777611 360.015 83.874575 360.39466 83.539062 360.9375 C 82.695377 362.30262 90.584923 367.37437 92.097656 366.43945 C 92.822256 365.99165 93.050651 366.11007 92.666016 366.73242 C 91.879046 368.00577 94.545358 370.39908 95.851562 369.5918 C 96.368024 369.27261 97.039422 369.66004 97.34375 370.45312 C 97.956695 372.05048 103.99144 375.5076 104.01562 374.27539 C 104.02409 373.84878 104.36154 373.98832 104.76562 374.58594 C 106.33274 376.90356 114.75806 381.03079 116.5332 380.34961 C 117.58379 379.94626 118.08321 380.05788 117.73633 380.61914 C 117.41048 381.14642 119.28337 382.55815 121.89844 383.75781 L 126.65234 385.93945 L 131.72266 384.01367 C 143.7988 379.4251 166.47981 377.7461 179.54883 380.47266 C 187.26787 382.08304 198.87791 386.94372 200.93945 389.42773 C 201.6575 390.29291 202.69846 391 203.25195 391 C 203.80545 391 206.00012 392.57501 208.13086 394.5 L 212.00586 398 C 214.07272 398.73826 219.56146 398.04633 227.41016 397.24609 C 228.00971 396.8746 230.975 396.51694 234 396.45117 C 239.92007 396.32274 248.69575 394.04872 247.09375 393.05859 C 246.55645 392.7266 247.91385 392.45508 250.10938 392.45508 C 252.38967 392.45508 254.46093 391.87385 254.93945 391.09961 C 255.40017 390.3541 256.3048 390.07124 256.95117 390.4707 C 258.37381 391.34997 270 387.16303 270 385.77148 C 270 385.2295 270.7178 385.06168 271.5957 385.39844 C 273.30476 386.0543 283 382.05774 283 380.69727 C 283 380.24901 283.4287 380.1468 283.95312 380.4707 C 285.18167 381.22997 301.99964 372.16167 302.6875 370.36914 C 302.97419 369.62211 303.63198 369.27262 304.14844 369.5918 C 305.45464 370.39908 308.12095 368.00577 307.33398 366.73242 C 306.96064 366.12834 307.17493 365.99095 307.84375 366.4043 C 309.07967 367.16815 313.36424 364.69626 312.42773 363.75977 C 312.11963 363.45167 312.41632 362.86036 313.08789 362.44531 C 313.86813 361.96308 314.05167 362.10795 313.5957 362.8457 C 312.60145 364.45446 314.50894 364.29714 315.86914 362.6582 C 316.48169 361.9201 316.64992 360.98195 316.24219 360.57422 C 315.83446 360.16648 315.95 359.92419 316.5 360.03516 C 318.36688 360.41181 319.85273 360.00338 321.17773 358.75 C 321.90452 358.0625 325.65 354.91299 329.5 351.75 C 341.79279 341.65081 364.93756 316.21269 357.8457 320.5957 C 357.12465 321.04133 356.96214 320.86989 357.41406 320.13867 C 357.81204 319.49469 358.55636 319.22655 359.06836 319.54297 C 359.96636 320.09795 360.45254 318.56877 360.03516 316.5 C 359.92419 315.95 360.16649 315.83447 360.57422 316.24219 C 361.4126 317.08057 364 315.24974 364 313.81836 C 364 313.30321 363.4375 313.20593 362.75 313.60156 C 362.06251 313.9972 361.725 314.06147 362 313.74414 C 362.275 313.42682 362.82856 313.24229 363.23047 313.33398 C 364.5024 313.62409 367.14823 309.04744 366.4043 307.84375 C 365.99093 307.17492 366.12833 306.96064 366.73242 307.33398 C 368.00577 308.12095 370.39908 305.45464 369.5918 304.14844 C 369.27261 303.63198 369.62204 302.97418 370.36914 302.6875 C 372.16167 301.99964 381.22997 285.18167 380.4707 283.95312 C 380.14668 283.4287 380.24913 283 380.69727 283 C 381.14548 283 382.52158 280.7979 383.75586 278.10742 L 383.29883 276.24414 L 382.71094 273.37305 C 382.27489 271.24221 380.93467 269.87766 377.51758 268.08789 C 373.05807 265.75213 365 257.0116 365 254.50977 C 365 253.83335 363.95179 251.7327 362.66992 249.84375 C 361.38804 247.95481 359.75567 244.85538 359.04297 242.95508 C 354.06361 229.67826 353.85579 228.55339 353.3125 212 L 352.76953 195.5 L 348.85156 191.83594 L 344.93359 188.17188 L 346.02148 181.36133 C 347.25486 173.64069 346.83344 172.9289 339.76953 170.8125 L 336 169.68359 L 336 163.93945 C 336 158.66419 335.73519 157.98341 332.75 155.57617 C 323.01088 147.7226 314.34973 140.37612 313.24023 139.0293 C 312.54702 138.1878 309.2244 133.13372 305.85742 127.79688 C 302.49043 122.46001 299.00355 117.28504 298.10938 116.29688 C 297.21516 115.30867 295.58781 113.19918 294.49219 111.60938 C 293.39657 110.01953 291.6 107.49539 290.5 106 C 284.19894 97.434071 284.4366 98.210063 287.1875 95.205078 C 291.44463 90.554736 295.06548 80.449223 295.70117 71.441406 C 296.23257 63.911438 296.11601 63.193972 294.12695 61.800781 C 292.06467 60.356302 292.04052 60.145444 293.54492 56.544922 C 295.62272 51.572031 295.10889 47.762835 292.1875 46.5 C 290.4232 45.737337 289.98496 44.908302 290.34375 43.009766 C 291.17017 38.636799 289.34284 36.689921 285.05859 37.375 C 281.71211 37.910127 281.18197 37.693991 280.11914 35.361328 C 278.86057 32.599071 277.65298 32.514679 268.25 34.546875 C 265.40541 35.161655 265 34.991862 265 33.183594 C 265 30.461688 263.83429 29.790478 256.79492 29.826172 z M 204.52344 72.296875 C 208.63959 72.273211 210.83258 72.432186 211.17383 72.773438 C 212.9428 74.542411 210.31582 77.842543 206.86328 78.1875 C 205.03626 78.370047 203.14796 79.377999 202.33789 80.605469 C 201.12047 82.4502 201.17592 82.996138 202.78906 84.988281 C 204.60252 87.227814 204.76304 87.242633 213.16797 85.992188 C 217.86323 85.293663 223.34526 85.029885 225.35156 85.40625 C 228.95097 86.081508 229 86.155701 229 90.923828 C 229 97.135104 230.51357 98.457229 236.76758 97.708984 C 239.37031 97.397589 242.3486 96.814032 243.38672 96.412109 C 245.12656 95.738514 245.22013 96.046218 244.57422 100.35352 C 243.39552 108.2136 244.06375 109 251.91602 109 L 258.69727 109 L 260.45312 113.25 C 261.41906 115.5875 262.41047 121.1 262.65625 125.5 C 263.25622 136.24018 263.65368 137.7552 266.07422 138.52344 C 269.99608 139.76819 272 136.52141 272 128.92188 C 272 125.19905 271.46648 119.8423 270.81445 117.01758 L 269.62891 111.88086 L 273.49609 108.44141 C 275.62303 106.54916 277.65121 105 278.00195 105 C 278.667 105 288.69288 117.82761 290.58984 121.10547 C 291.18868 122.14021 292.36125 123.77591 293.19727 124.74219 C 294.03329 125.70848 296.6942 129.875 299.10938 134 C 303.82762 142.05868 312.12354 151.00865 321.29297 157.93164 L 327 162.24023 L 327 168.18555 C 327 175.9306 327.98167 177.58183 333.07617 178.39648 L 337.22656 179.06055 L 336.5625 185.2793 L 335.89844 191.5 L 339.94922 195.45312 L 344 199.40625 L 344.01172 211.95312 C 344.01909 219.74087 344.57676 226.57908 345.48242 229.98242 C 346.8249 235.02723 346.78058 236.13109 344.93359 243.77148 C 341.86862 256.45025 335.36042 265.37737 324.73438 271.47461 C 318.05868 275.30511 315.01444 274.20129 308.47461 265.57812 C 305.89817 262.18095 305.50989 260.84194 305.58008 255.57812 C 305.62464 252.23545 305.98252 246.70788 306.375 243.29492 C 307.00706 237.79868 306.8523 236.8523 305.01367 235.01367 C 303.87195 233.87195 301.60156 232.6703 299.96875 232.34375 C 296.49241 231.64848 296.50008 231.71795 298.18555 217.14844 L 299.38281 206.79883 L 296.94141 204.89844 C 295.59843 203.85418 291.125 201.1417 287 198.86914 C 282.875 196.59657 279.419 194.67758 279.32031 194.60547 C 279.22165 194.53338 279.60629 192.28931 280.17578 189.61914 C 280.97808 185.85742 280.9062 184.18719 279.85547 182.20117 C 278.40835 179.4659 267.02034 168.02255 265.73047 168.00781 C 265.30704 168.00298 263.17787 166.87483 261 165.5 C 255.85876 162.25448 244.19427 160.13503 240.56836 161.78711 C 235.22116 164.22346 239.01568 169.99376 245.97266 170.00586 C 247.91278 170.00925 250.78986 170.68425 252.36523 171.50586 C 253.94061 172.32747 255.66055 173 256.18945 173 C 257.68764 173 268.89149 181.90397 270.51953 184.38867 C 271.7431 186.25606 271.78024 187.54162 270.75781 192.41602 L 269.54102 198.22266 L 272.51953 200.59766 C 275.16132 202.70455 281.05551 206.11253 287.74219 209.39844 C 290.3282 210.66923 290.34986 211.04674 288.6543 224.80273 C 287.19654 236.6295 287.6639 238.07352 293.57812 240.02539 L 297.15234 241.20508 L 296.47852 248.85156 C 296.10839 253.05766 295.39972 258.3 294.9043 260.5 C 292.85243 269.61176 289.90189 279.54237 288.25586 282.875 C 285.92884 287.5864 272.83832 296.67429 247 311.51367 C 244.525 312.9351 240.025 315.62723 237 317.49609 C 231.48596 320.9027 229.22095 322.19011 219 327.73633 C 215.975 329.37779 210.575 332.35167 207 334.3457 C 203.425 336.33973 192.77638 341.80368 183.33594 346.48633 L 166.17188 355 L 150.78125 355 C 136.2925 355 135.09418 354.85053 130.2793 352.45117 C 127.46653 351.0495 124.56474 349.17472 123.83203 348.28516 C 122.64615 346.84542 122.80145 346.74368 125.25 347.35352 C 134.62649 349.68887 144.75882 348.93214 158.66797 344.85742 C 164.85157 343.04592 166.63722 341.95437 171.66797 336.91016 C 179.29132 329.26641 181.02765 326.91101 185.48438 318.16602 C 188.85239 311.55724 189.21409 310.07766 189.27539 302.67969 C 189.33389 295.61658 188.90695 293.47619 186.14258 287 C 181.32891 275.72289 172.23776 257.70978 169.45898 253.94336 C 168.10709 252.11096 167 250.21812 167 249.73828 C 167 249.25844 165.875 247.39257 164.5 245.58984 C 163.125 243.78712 162 241.96946 162 241.55078 C 162 241.13209 160.875 239.45246 159.5 237.81836 C 158.125 236.18427 157 234.29031 157 233.60938 C 157 232.16257 150.81605 229 147.98633 229 C 145.0027 229 137.79128 232.04587 135 234.48438 C 129.68757 239.1253 123.58896 241.77979 98.835938 250.22852 C 91.581372 252.70465 91.085811 252.75181 89.597656 251.10742 C 88.732851 250.15182 87.5195 247.91665 86.900391 246.14062 C 85.786084 242.94413 85.861735 242.82576 94.423828 234.26367 C 99.345268 229.34222 102.93793 224.94243 102.75977 224.05664 C 102.27805 221.66152 87.510266 222.13579 77.935547 224.85352 C 66.426175 228.12038 66.183873 227.9828 71.082031 221 C 73.396848 217.7 75.674222 215 76.144531 215 C 76.614841 215 77 214.38071 77 213.62305 C 77 212.8654 77.694741 211.66881 78.542969 210.96484 C 79.391201 210.26087 82.118521 206.71768 84.605469 203.0918 C 87.092417 199.46593 90.666054 194.475 92.544922 192 C 98.214266 184.53187 99.076757 182.2969 99.699219 173.47656 C 100.34557 164.31767 99.513184 162 95.578125 162 C 92.772839 162 91 163.80712 91 166.66602 C 91 169.74757 88.030255 178.31972 86.632812 179.27148 C 84.785738 180.52949 78.899335 179.02557 75.488281 176.42383 C 71.759025 173.57938 67.540738 173.27859 66.029297 175.75 C 64.356871 178.48464 65.670058 170.95988 68.603516 161 C 71.238462 152.05363 74.012576 145.7551 77.75 140.23438 C 78.987501 138.40637 80 135.89715 80 134.6582 C 80 133.34777 81.673073 130.77218 84 128.5 C 88.264192 124.33613 89.437166 119.48929 86.457031 118.3457 C 85.091333 117.82163 85.108456 117.53761 86.611328 115.87695 C 87.545317 114.84491 88.720913 114 89.222656 114 C 89.724407 114 91.895733 112.5375 94.048828 110.75 C 98.011296 107.46036 99.002912 104.4033 96.816406 102.2168 C 96.165583 101.56596 95.828069 100.85364 96.066406 100.63477 C 96.927182 99.844261 120.3317 93 122.17383 93 C 123.21248 93 124.32844 92.308952 124.65234 91.464844 C 125.47239 89.327816 134.42623 83.299034 144.28125 78.248047 C 149.22581 75.713809 161.98401 74.095667 186.33008 72.916016 C 194.36688 72.526596 200.40729 72.320539 204.52344 72.296875 z M 177.50195 144.58008 C 175.50059 144.56085 172.24136 146.50968 162.35547 153.00195 C 153.98329 158.50013 152.29259 159.58211 148.63672 161.7793 C 147.06145 162.72604 144.22845 164.5125 142.3418 165.75 C 140.45515 166.9875 138.45094 168 137.88867 168 C 137.3264 168 135.4344 169.0886 133.68359 170.41797 C 131.28861 172.23645 120.88331 176.99584 119.29492 177 C 119.18242 177.00027 118.01053 175.91874 116.68945 174.59766 C 115.28935 173.19756 113.99854 170.39422 113.5957 167.875 C 112.83299 163.1053 110.61345 160 107.9668 160 C 104.40964 160 103.9373 162.2878 104.22266 178.13477 L 104.5 193.5 L 113.53906 194.07227 C 120.9316 194.54064 123.54229 195.17043 127.86914 197.52539 C 134.6127 201.1957 140.62971 208.76411 144.42773 218.34961 C 146.63522 223.92089 147.98911 225.99179 149.92773 226.76367 C 153.53236 228.19892 156.2161 228.16549 166.5 226.55664 C 177.58623 224.82227 187.11883 220.99864 191.00391 216.72852 C 196.35388 210.84834 194.88399 204.52449 185.73242 194.05664 L 182.72266 190.61328 L 183.28125 179.25195 C 183.83742 167.95903 183.82672 167.88513 181.44727 166.98047 C 179.08679 166.08302 179.07797 166.02551 180.77734 162.98047 C 182.45585 159.97283 182.44129 159.84556 180.25 158.03711 C 177.63872 155.88205 177.37555 153.76314 179.5 152 C 181.64279 150.22164 181.3635 146.26569 179.00586 145.00391 C 178.5252 144.74667 178.06234 144.58546 177.50195 144.58008 z M 151.8457 187 C 157.11817 187 158.31995 189.16599 154.89062 192.49023 C 150.98275 196.27835 143 196.68918 143 193.10156 C 143 189.93143 147.24932 187 151.8457 187 z M 75 197 C 77.752898 197 78.590543 199.09514 76.460938 200.65234 C 74.09659 202.38118 73.074127 202.35545 72.380859 200.54883 C 71.612183 198.54569 72.752073 197 75 197 z M 147.77734 238.10938 C 148.5595 238.08943 149.00131 238.48704 149.26367 239.25 C 149.65569 240.39001 139.59472 247.98891 137.68359 247.99609 C 137.23439 247.99784 135.39257 249.125 133.58984 250.5 C 129.69798 253.46847 129.41085 253.51357 128.55273 251.27734 C 127.94951 249.70537 130.16654 247 132.05859 247 C 132.43065 247 135.75444 244.975 139.44531 242.5 C 143.90709 239.50806 146.38306 238.14489 147.77734 238.10938 z M 67.59375 241.66797 L 70.921875 242.33398 C 72.752172 242.70005 74.814901 243 75.505859 243 C 76.196814 243 77.265866 244.99906 77.880859 247.44141 C 78.495853 249.88377 79.449697 252.15992 80 252.5 C 80.550299 252.84011 81 253.54106 81 254.05859 C 81 256.76067 76.243654 252.70829 69.878906 244.58398 L 67.59375 241.66797 z M 156.91602 251.24414 C 157.39662 251.24328 157.78008 251.70669 158.39258 252.5 C 160.63417 255.40329 160.39037 256.6089 156.54688 261.64258 C 151.03295 268.86392 148 281.43063 148 297.05469 C 148 302.43464 147.72642 307.54799 147.39258 308.41797 C 146.60604 310.4672 142.11822 310.47067 141.33203 308.42188 C 140.9989 307.55378 140.96124 300.69129 141.25 293.17188 C 141.96377 274.58437 145.44632 263.33067 153.17383 254.63477 C 155.30376 252.23791 156.2136 251.2454 156.91602 251.24414 z M 121.70312 252.09375 C 122.79673 252.09388 123.03573 253.20046 123.83984 256.7793 C 124.36152 259.10109 124.41829 261 123.9668 261 C 123.5153 261 121.75651 259.31378 120.05859 257.25391 L 116.9707 253.50977 L 119.54883 252.65039 C 120.53317 252.32228 121.20604 252.09369 121.70312 252.09375 z M 64.523438 253.16406 C 64.973837 253.20838 66.695934 254.7793 68.939453 257.25 C 73.076872 261.80639 74.780497 263 77.152344 263 C 79.41777 263 81.039415 264.02066 83.822266 267.19922 C 89.625594 273.82775 93.300109 277.11868 96.001953 278.10742 C 97.378128 278.61103 99.740628 280.9783 101.25195 283.36719 C 103.58745 287.05883 104 288.78255 104 294.85547 C 104 299.14352 103.58424 302 102.95898 302 C 102.04892 302 84.748505 284.97316 80.097656 279.5 C 75.255726 273.80197 71 268.05638 71 267.2168 C 71 266.69604 70.172132 265.19644 69.160156 263.88477 C 68.148184 262.5731 66.84349 260.15 66.261719 258.5 C 65.679947 256.85 64.869905 254.6 64.460938 253.5 C 64.371474 253.25937 64.397324 253.15165 64.523438 253.16406 z M 140.77344 253.48242 C 140.80447 253.48455 140.82681 253.49282 140.83984 253.50586 C 141.04845 253.71447 140.21687 255.29181 138.99219 257.01172 C 134.87512 262.79361 133.25197 272.35153 132.46875 295.42578 C 131.76056 316.28991 131.79834 316.9517 133.97461 321.44727 C 135.56291 324.72826 137.18776 326.46915 139.60352 327.47852 C 141.47149 328.25901 143 329.14614 143 329.44922 C 143 330.5906 135.39145 329.86049 132.83984 328.47461 C 129.5624 326.69453 128.48998 321.5857 129.4707 312.42773 C 130.10582 306.49708 129.97901 305.88917 127.62109 303.53125 C 126.22913 302.13929 124.22143 301 123.1582 301 C 121.45275 301 121.22 300.24698 121.1875 294.60547 C 121.14514 287.26307 119.29453 281.0856 114.52539 272.37109 L 111.17188 266.24219 L 113.63281 265.12109 C 117.22298 263.4853 117.59898 263.61334 122.11914 268 C 124.38609 270.2 126.84661 272 127.58594 272 C 129.77637 272 130.84404 268.79901 130.29102 263.89258 L 129.77344 259.29688 L 135.11719 256.21094 C 137.87226 254.62031 140.30789 253.45049 140.77344 253.48242 z M 109.63672 256.46094 C 110.40777 256.43866 111.20649 256.73186 112.08008 257.34375 C 114.0096 258.69524 113.77188 258.89268 107.86719 260.88672 C 100.05006 263.52661 98 263.56891 98 261.08789 C 98 259.61546 98.97725 259.0148 102.25 258.47266 C 104.5875 258.08544 107.2955 257.35044 108.26758 256.83984 C 108.72074 256.6018 109.17409 256.4743 109.63672 256.46094 z M 90.390625 261.66602 C 91.882646 261.64095 92.935258 263.44437 92.986328 266.25 C 93.010615 267.58403 91.351955 267.04776 89.654297 265.17188 C 87.536257 262.83146 87.573855 262.34439 89.914062 261.73242 C 90.077185 261.68976 90.236278 261.66861 90.390625 261.66602 z M 178.58398 290.98828 L 179.91016 296.95898 C 181.58155 304.49288 180.84064 307.75164 177.25195 308.65234 C 175.75712 309.02751 173.3235 310.72033 171.84375 312.41602 C 170.364 314.11172 168.27964 316.59742 167.21289 317.93945 C 165.30424 320.34065 165.25676 320.34807 164.19141 318.35742 C 163.28731 316.6681 163.90637 315.00602 167.95117 308.27734 C 170.61505 303.84585 173.07945 299.38234 173.42773 298.35938 C 173.77603 297.33638 175.08045 295.25996 176.32422 293.74414 L 178.58398 290.98828 z M 122 306.5 C 123.01019 306.5 123.60027 307.71856 123.80859 310.23242 C 124.17675 314.67504 123.0203 317.24906 121.16992 316.10547 C 119.27938 314.93705 120.0086 306.5 122 306.5 z M 178.61914 314.72852 C 178.69776 314.72268 178.75103 314.75113 178.77344 314.81836 C 179.23735 316.2101 177.41573 319.57562 173.66992 324.25 C 170.75876 327.88284 168 329.16633 168 326.88672 C 168 325.29069 177.2601 314.82938 178.61914 314.72852 z M 117.0625 320.13086 C 117.53041 320.11465 118.43446 320.83323 119.79297 322.2793 C 121.84026 324.45853 121.85532 324.61008 120.11133 325.69922 C 118.52195 326.69181 118.1505 326.39856 117.23633 323.41992 C 116.56786 321.24186 116.49778 320.15042 117.0625 320.13086 z M 158.04492 320.55664 C 159.30115 320.61847 162.1444 325.70924 163.04297 329.69336 C 163.73355 332.7553 163.55411 333.22018 161.34375 334.06055 C 159.98346 334.57773 158.72137 335 158.54102 335 C 157.00057 335 156.32252 321.53655 157.81641 320.61328 C 157.885 320.57089 157.96117 320.55252 158.04492 320.55664 z M 123.81641 330.32812 C 124.37389 330.30264 125.02978 330.56354 125.72656 331.15625 C 130.87935 335.53942 139.60277 337.09108 148.04688 335.12695 C 151.15837 334.40321 151.72438 334.57538 152.64648 336.5293 C 153.64597 338.6472 153.44713 338.78665 148.59961 339.36914 C 133.18756 341.22112 122.87992 339.18059 122.16602 334.13477 C 121.83882 331.82225 122.58993 330.38422 123.81641 330.32812 z "
       transform="scale(0.26458333)" />
  </g>
</svg>
